/* XPM */
static char *_60a09527142496f81f686399d595e187PC9WN6lKpvmyZK6[] = {
/* columns rows colors chars-per-pixel */
"48 48 207 2 ",
"   c #000000",
".  c #0A0600",
"X  c #0D0A01",
"o  c #120D01",
"O  c #151202",
"+  c #1B1402",
"@  c #1D1A04",
"#  c #231B02",
"$  c #2A1E01",
"%  c #231701",
"&  c #2B2203",
"*  c #272203",
"=  c #332501",
"-  c #342D06",
";  c #3B2C03",
":  c #332E0A",
">  c #3E3204",
",  c #393109",
"<  c #453704",
"1  c #4A3302",
"2  c #453A06",
"3  c #403708",
"4  c #413A0B",
"5  c #543D03",
"6  c #4D4107",
"7  c #544105",
"8  c #5D4603",
"9  c #54470A",
"0  c #584A09",
"q  c #5C500A",
"w  c #585111",
"e  c #6C4A02",
"r  c #654D05",
"t  c #734D01",
"y  c #6F5404",
"u  c #6A5A0C",
"i  c #675A0F",
"p  c #735905",
"a  c #7B5B04",
"s  c #725E08",
"d  c #675D12",
"f  c #625711",
"g  c #815601",
"h  c #8C6404",
"j  c #8D6B04",
"k  c #8D6F08",
"l  c #886507",
"z  c #986B06",
"x  c #8B740B",
"c  c #8E7A0C",
"v  c #957206",
"b  c #9D7A09",
"n  c #987609",
"m  c #857716",
"M  c #A26E03",
"N  c #A77805",
"B  c #B77C03",
"V  c #B27703",
"C  c #9D830C",
"Z  c #988618",
"A  c #9D8D18",
"S  c #AB860B",
"D  c #AE8B0D",
"F  c #A88406",
"G  c #BD8D05",
"H  c #B68907",
"J  c #BB970D",
"K  c #A18712",
"L  c #A28B15",
"P  c #A88514",
"I  c #B38618",
"U  c #A29010",
"Y  c #AB951A",
"T  c #AD9A1B",
"R  c #AE9515",
"E  c #B49119",
"W  c #BBA815",
"Q  c #B88620",
"!  c #BF9521",
"~  c #B8A625",
"^  c #C88C0B",
"/  c #CF9B06",
"(  c #CF9A08",
")  c #D89F05",
"_  c #CD951D",
"`  c #EB9F04",
"'  c #E19A05",
"]  c #CDAA08",
"[  c #DAAD0B",
"{  c #DEA109",
"}  c #D7B10D",
"|  c #C8A617",
" . c #CCB61A",
".. c #D8B818",
"X. c #EBA404",
"o. c #E4AD06",
"O. c #EEAB05",
"+. c #EBAA0B",
"@. c #E5A007",
"#. c #EEB30C",
"$. c #ECBB0B",
"%. c #E9B70A",
"&. c #F2B305",
"*. c #F1BB0C",
"=. c #EBB312",
"-. c #EDBE13",
";. c #E3B913",
":. c #F0B711",
">. c #F0BE16",
",. c #C19F28",
"<. c #C69726",
"1. c #D09D29",
"2. c #C6AC20",
"3. c #D6A828",
"4. c #D4A520",
"5. c #C9B327",
"6. c #DCB321",
"7. c #DBBD2F",
"8. c #DEBD25",
"9. c #D0AE37",
"0. c #C6B330",
"q. c #D6B53B",
"w. c #E1BB37",
"e. c #DBC41B",
"r. c #DCC216",
"t. c #F3C50C",
"y. c #F5CB09",
"u. c #F7D30D",
"i. c #EFC313",
"p. c #EECC1F",
"a. c #E1C819",
"s. c #F0C314",
"d. c #F1C41B",
"f. c #F1CC1B",
"g. c #F1C816",
"h. c #EED011",
"j. c #F7D81A",
"k. c #FAE11D",
"l. c #DCC12C",
"z. c #D2C03F",
"x. c #F2C821",
"c. c #E7D428",
"v. c #E9D62A",
"b. c #F3D925",
"n. c #F3D926",
"m. c #E7CF3B",
"M. c #E6C838",
"N. c #E6D33B",
"B. c #F9E223",
"V. c #F5E22B",
"C. c #FAE52A",
"Z. c #DEAC43",
"A. c #E3B948",
"S. c #E3B95D",
"D. c #E3BA54",
"F. c #E3BA66",
"G. c #E2C24B",
"H. c #E3CC49",
"J. c #EEDB47",
"K. c #E6C65A",
"L. c #EED756",
"P. c #F0D452",
"I. c #EBCC6B",
"U. c #EDC762",
"Y. c #EFD264",
"T. c #F2D867",
"R. c #EED474",
"E. c #ECDB76",
"W. c #F4E264",
"Q. c #F7E46E",
"!. c #FAEA7A",
"~. c #F8E873",
"^. c #EDD38B",
"/. c #F1DA8E",
"(. c #ECD593",
"). c #F2DD90",
"_. c #F3D898",
"`. c #E9C786",
"'. c #F6E181",
"]. c #FAEC88",
"[. c #F6EA97",
"{. c #FBF09E",
"}. c #F3DDAD",
"|. c #F1DDA5",
" X c #F4E3AA",
".X c #F8EAA6",
"XX c #F5E6BB",
"oX c #FAEFBD",
"OX c #F4E3B3",
"+X c #FCF3BC",
"@X c #F6E7C6",
"#X c #F7ECC4",
"$X c #F8ECC5",
"%X c #F7EBCA",
"&X c #F9EDCC",
"*X c #FCF4C4",
"=X c #FCF5CB",
"-X c #F9EED4",
";X c #FDF9D5",
":X c #FBF3DB",
">X c #FEFADD",
",X c #F8F0D4",
"<X c #FBF5E3",
"1X c #FDFAEB",
"2X c #FDF9E7",
"3X c #FEFCF5",
"4X c #FFFFFF",
/* pixels */
"4X4X4X4X4X4X4X4X4X4X4X4X4X4X4X4X4X4X4X4X4X4X4X4X4X4X4X4X4X4X4X4X4X4X4X4X4X4X4X4X4X4X4X4X4X4X4X4X",
"4X4X4X4X4X4X4X4X4X4X4X4X4X4X4X4X4X4X4X4X4X4X4X4X4X4X4X4X4X4X4X4X4X4X4X4X4X4X4X4X4X4X4X4X4X4X4X4X",
"4X4X4X4X4X4X4X4X4X4X4X4X4X4X4X4X4X4X4X4X4X4X4X4X4X4X4X4X4X4X4X4X4X4X4X4X4X4X4X4X4X4X4X4X4X4X4X4X",
"4X4X4X4X4X4X4X4X4X4X4X4X4X4X4X4X4X4X4X4X4X4X4X4X4X4X4X4X4X4X4X4X4X4X4X4X4X4X4X4X4X4X4X4X4X4X4X4X",
"4X4X4X4X4X4X4X4X4X4X4X4X4X4X4X4X4X4X4X4X4X4X4X4X4X4X4X4X4X4X4X4X4X4X4X4X4X4X4X4X4X4X4X4X4X4X4X4X",
"4X4X4X4X4X4X4X4X4X4X4X4X4X4X4X4X4X4X4X1X<X=X*X*X*X*X=X;X2X3X4X4X4X4X4X4X4X4X4X4X4X4X4X4X4X4X4X4X",
"4X4X4X4X4X4X4X4X4X4X4X4X4X4X4X4X2X+X].W.H.0.~ T Y T ~ z.L.!..X;X4X4X4X4X4X4X4X4X4X4X4X4X4X4X4X4X",
"4X4X4X4X4X4X4X4X4X4X4X4X4X4X3X.XP.l.Y d 4 & + o O O @ - 9 m  .m.'.,X4X4X4X4X4X4X4X4X4X4X4X4X4X4X",
"4X4X4X4X4X4X4X4X4X4X4X4X4X:XT...k , X                     . + q J M..X4X4X4X4X4X4X4X4X4X4X4X4X4X",
"4X4X4X4X4X4X4X4X4X4X4X4X$Xw.S ; .                               O p ( I.2X4X4X4X4X4X4X4X4X4X4X4X",
"4X4X4X4X4X4X4X4X4X4X3X}.4.a @               . + # * +             . 1 S D.-X4X4X4X4X4X4X4X4X4X4X",
"4X4X4X4X4X4X4X4X4X4X|.1.5 o                 * U W W A X               # z D.<X4X4X4X4X4X4X4X4X4X",
"4X4X4X4X4X4X4X4X4X@X<.5 .                   - e.k.j..., +               % M S.3X4X4X4X4X4X4X4X4X",
"4X4X4X4X4X4X4X4X:Xq.g o                   o q a.b.j.p.;.D .               ; G ^.4X4X4X4X4X4X4X4X",
"4X4X4X4X4X4X4X3XR.D %                   & c ..g.g.s.:.*.H .               . 8 6.#X4X4X4X4X4X4X4X",
"4X4X4X4X4X4X4X$X6.1                   2 W i.t.s.d.d.>.#.H .                 X b Y.1X4X4X4X4X4X4X",
"4X4X4X4X4X4X3XT.C .                 2 } t.:.>.x.:.+.` ' V .                   > 8.oX4X4X4X4X4X4X",
"4X4X4X4X4X4X=XN.6                 # H *.#.:.=.^ h 1 + X X                     X T ].3X4X4X4X4X4X",
"4X4X4X4X4X4X{.5.O                 p o.O.+.+.N ; .                               f W.1X4X4X4X4X4X",
"4X4X4X4X4X3X].m .               X / X.X.+.B $                                   : z.;X4X4X4X4X4X",
"4X4X4X4X4X2XL.9                 8 O.X.X.@.1                                     O Y oX4X4X4X4X4X",
"4X4X4X4X4X:X9.;                 H O.+.#.N o . . .                               . k /.4X4X4X4X4X",
"4X4X4X4X4X&X<.&               O ( #.#.-.R u i d d , .                           . a I.4X4X4X4X4X",
"4X4X4X4X4X%XI #               # [ -.i.f.f.c.v.v.v.c X                           . y S.4X4X4X4X4X",
"4X4X4X4X4X@XI %               & ..b.b.V.V.V.V.V.b.n X                           . e S.4X4X4X4X4X",
"4X4X4X4X4X&XI $               # e.V.V.C.5.L C C K r .                           . t F.4X4X4X4X4X",
"4X4X4X4X4X-X<.=               X  .B.C.C.U @ O o o .                             . a `.4X4X4X4X4X",
"4X4X4X4X4X<XZ.1                 c j.k.C...-                                     o z }.4X4X4X4X4X",
"4X4X4X4X4X3XF.a                 = h.k.k.j.F O                                   $ <.&X4X4X4X4X4X",
"4X4X4X4X4X3X/.E O                 C u.u.j.;.l @                                 8 G.2X4X4X4X4X4X",
"4X4X4X4X4X4X$XM.3                 > ] y.t.f...F 7 o                           . Z !.3X4X4X4X4X4X",
"4X4X4X4X4X4X3XQ.Z .               . y t.y.*.d.i.+./ M z a .                   , M.oX4X4X4X4X4X4X",
"4X4X4X4X4X4X4X*XN.4                 X p [ $.&.%.=.=.=.o.B .                 X A ~.1X4X4X4X4X4X4X",
"4X4X4X4X4X4X4X3X].~ @                 . 6 G o.O.X.X.` ` B .                 w J.=X4X4X4X4X4X4X4X",
"4X4X4X4X4X4X4X4X;XJ.m X                   * a [ &.O.X.X.B X               , 5.].3X4X4X4X4X4X4X4X",
"4X4X4X4X4X4X4X4X4XoX6.9                     = { &.&.) p 1               % P P.3X4X4X4X4X4X4X4X4X",
"4X4X4X4X4X4X4X4X4X3X_.1.1 .                 * N ^ G z o               % l A.-X4X4X4X4X4X4X4X4X4X",
"4X4X4X4X4X4X4X4X4X4X1X(.^ e o               . # $ # @ .             ; z Z.@X3X4X4X4X4X4X4X4X4X4X",
"4X4X4X4X4X4X4X4X4X4X4X3XXX3.v &                                 o 8 G D.:X4X4X4X4X4X4X4X4X4X4X4X",
"4X4X4X4X4X4X4X4X4X4X4X4X4X%XH._ s * .                     . o 2 K 7.).3X4X4X4X4X4X4X4X4X4X4X4X4X",
"4X4X4X4X4X4X4X4X4X4X4X4X4X4X2X|.H.2.x 6 = @ o . . X O # > u R 7.E.=X4X4X4X4X4X4X4X4X4X4X4X4X4X4X",
"4X4X4X4X4X4X4X4X4X4X4X4X4X4X4X4X:X XE.A.~ P v j l j b E 9.K.).#X3X4X4X4X4X4X4X4X4X4X4X4X4X4X4X4X",
"4X4X4X4X4X4X4X4X4X4X4X4X4X4X4X4X4X4X3X2X-X@XOX(.^. XXX%X:X1X4X4X4X4X4X4X4X4X4X4X4X4X4X4X4X4X4X4X",
"4X4X4X4X4X4X4X4X4X4X4X4X4X4X4X4X4X4X4X4X4X4X4X4X4X4X4X4X4X4X4X4X4X4X4X4X4X4X4X4X4X4X4X4X4X4X4X4X",
"4X4X4X4X4X4X4X4X4X4X4X4X4X4X4X4X4X4X4X4X4X4X4X4X4X4X4X4X4X4X4X4X4X4X4X4X4X4X4X4X4X4X4X4X4X4X4X4X",
"4X4X4X4X4X4X4X4X4X4X4X4X4X4X4X4X4X4X4X4X4X4X4X4X4X4X4X4X4X4X4X4X4X4X4X4X4X4X4X4X4X4X4X4X4X4X4X4X",
"4X4X4X4X4X4X4X4X4X4X4X4X4X4X4X4X4X4X4X4X4X4X4X4X4X4X4X4X4X4X4X4X4X4X4X4X4X4X4X4X4X4X4X4X4X4X4X4X",
"4X4X4X4X4X4X4X4X4X4X4X4X4X4X4X4X4X4X4X4X4X4X4X4X4X4X4X4X4X4X4X4X4X4X4X4X4X4X4X4X4X4X4X4X4X4X4X4X"
};
