/* XPM */
static char *eaac11fe420b4ff4d9f406fbfbcef71fwp7i5aywSOFveg7N[] = {
/* columns rows colors chars-per-pixel */
"16 16 101 2 ",
"   c None",
".  c black",
"X  c #010000",
"o  c #020100",
"O  c #020200",
"+  c #040200",
"@  c #050300",
"#  c #050400",
"$  c #060400",
"%  c #060500",
"&  c #070500",
"*  c #080600",
"=  c #0B0900",
"-  c #110D00",
";  c #120E01",
":  c #141100",
">  c #151200",
",  c #161200",
"<  c #191200",
"1  c #191300",
"2  c #1A1600",
"3  c #241E00",
"4  c #241F00",
"5  c #2A1C00",
"6  c #272200",
"7  c #2B2300",
"8  c #2C2100",
"9  c #2E2501",
"0  c #302101",
"q  c #322201",
"w  c #372E00",
"e  c #382A01",
"r  c #3C3100",
"t  c #4F3601",
"y  c #403800",
"u  c #4A3800",
"i  c #5A3F01",
"p  c #4E4200",
"a  c #574700",
"s  c #594301",
"d  c #5D4F00",
"f  c #5C5200",
"g  c #684D00",
"h  c #765D00",
"j  c #6F6200",
"k  c #746000",
"l  c #7D6400",
"z  c #825800",
"x  c #856300",
"c  c #836A00",
"v  c #8D6900",
"b  c #906D00",
"n  c #996A00",
"m  c #837200",
"M  c #837400",
"N  c #887000",
"B  c #937200",
"V  c #967100",
"C  c #967300",
"Z  c #987B00",
"A  c #9D7D00",
"S  c #A77200",
"D  c #AA7800",
"F  c #9B8800",
"G  c #9F8C00",
"H  c #A78000",
"J  c #A28600",
"K  c #AC8000",
"L  c #A38F00",
"P  c #AF8E00",
"I  c #BA8200",
"U  c #B98400",
"Y  c #B38A00",
"T  c #AE9600",
"R  c #B59000",
"E  c #B29400",
"W  c #BD9A00",
"Q  c #BDA600",
"!  c #C58B00",
"~  c #C98A00",
"^  c #C98B00",
"/  c #CF9000",
"(  c #C79E00",
")  c #C1A700",
"_  c #D5AA00",
"`  c #CBB000",
"'  c #D9B400",
"]  c #D2BA00",
"[  c #E7A600",
"{  c #EBA400",
"}  c #E5A800",
"|  c #EFAC00",
" . c #EEAD00",
".. c #ECB500",
"X. c #EEB600",
"o. c #EFB600",
"O. c #F1BE00",
"+. c #F3CA00",
"@. c #F5D300",
"#. c #F3D900",
"$. c #F8DD00",
/* pixels */
"            ` L L )             ",
"        Z w . . . . 3 c         ",
"      s . . . 6 f > . . e U     ",
"    i . . . . c @.R + . . q     ",
"  A . . . = Y +.o.{ + . . . h   ",
"  y . . . C  .D 5 % . . . . >   ",
"' % . . 1 { ! % . . . . . . . J ",
"K . . . u o.W M f . . . . . . x ",
"S . . . p #.] T l . . . . . . z ",
"~ % . . 3 $.Q . . . . . . . . n ",
"  r . . . E +.B - . . . . . - _ ",
"  F . . . > ( o.} / + . . . k   ",
"    a . . . * C  .~ % . . 9     ",
"      t . . . 8 g 1 . . q U     ",
"        N 7 . . . . 2 k         ",
"            Y b v H             "
};
