/* XPM */
static char *_11cdae2a4984050dbf47ee3ff238cd1VYWqppclIoYGgXkR[] = {
/* columns rows colors chars-per-pixel */
"32 32 141 2 ",
"   c None",
".  c #000000",
"X  c #0A0701",
"o  c #0D0901",
"O  c #120E01",
"+  c #171201",
"@  c #1C1201",
"#  c #211501",
"$  c #231D01",
"%  c #2D1E01",
"&  c #272201",
"*  c #2C2301",
"=  c #342601",
"-  c #392701",
";  c #332801",
":  c #382901",
">  c #462E01",
",  c #433301",
"<  c #493701",
"1  c #433901",
"2  c #4A3C01",
"3  c #523F01",
"4  c #4C4201",
"5  c #554101",
"6  c #5C4601",
"7  c #564B01",
"8  c #5A4B01",
"9  c #634601",
"0  c #614A00",
"q  c #6A4D01",
"w  c #635401",
"e  c #6A5301",
"r  c #6E5F01",
"t  c #725600",
"y  c #7B5401",
"u  c #745901",
"i  c #7B5E01",
"p  c #756301",
"a  c #786900",
"s  c #866701",
"d  c #8B6401",
"f  c #806C01",
"g  c #8B6B00",
"h  c #956700",
"j  c #956900",
"k  c #996E00",
"l  c #817100",
"z  c #8D7B00",
"x  c #967500",
"c  c #9C7700",
"v  c #9E7A00",
"b  c #A36E00",
"n  c #A77300",
"m  c #A47D00",
"M  c #B77C00",
"N  c #C07D00",
"B  c #9B8501",
"V  c #9E8A00",
"C  c #A58201",
"Z  c #AD8400",
"A  c #A38C00",
"S  c #AA8A00",
"D  c #B38600",
"F  c #B88100",
"G  c #B48900",
"H  c #BD8F00",
"J  c #AA9601",
"K  c #B99500",
"L  c #B49B00",
"P  c #BA9D00",
"I  c #C28200",
"U  c #CC8700",
"Y  c #C58C00",
"T  c #CB8C00",
"R  c #D18E00",
"E  c #C59200",
"W  c #CC9300",
"Q  c #C79B00",
"!  c #CC9B00",
"~  c #D69400",
"^  c #D89400",
"/  c #D39B00",
"(  c #DD9C00",
")  c #E19600",
"_  c #E19A00",
"`  c #EB9D00",
"'  c #C6A600",
"]  c #CCA300",
"[  c #C2AB00",
"{  c #CAAA00",
"}  c #D5A300",
"|  c #D4AB00",
" . c #DAAB00",
".. c #CEB600",
"X. c #D5B200",
"o. c #DCB500",
"O. c #D5B900",
"+. c #DCBE00",
"@. c #E4A300",
"#. c #EBA400",
"$. c #E7AC00",
"%. c #EDAC00",
"&. c #E7B300",
"*. c #EEB400",
"=. c #E3B900",
"-. c #EDBB00",
";. c #F1B400",
":. c #F1BE00",
">. c #D6C000",
",. c #DEC200",
"<. c #E1C600",
"1. c #EDC500",
"2. c #E6CA00",
"3. c #EBCC00",
"4. c #F5C600",
"5. c #F2C400",
"6. c #F0C800",
"7. c #F4CB00",
"8. c #F2CD00",
"9. c #F0CF00",
"0. c #EED300",
"q. c #EED400",
"w. c #F1D000",
"e. c #F1D200",
"r. c #F7D200",
"t. c #F3D600",
"y. c #F2D700",
"u. c #FDD700",
"i. c #F3D900",
"p. c #F1DA00",
"a. c #F2DC00",
"s. c #F3DD00",
"d. c #F7DF00",
"f. c #F8DA00",
"g. c #FBDD00",
"h. c #F8DE00",
"j. c #F9DE00",
"k. c #FADF00",
"l. c #F3E000",
"z. c #F5E000",
"x. c #F4E100",
/* pixels */
"                              ,.2.,.                            ",
"                    O.2.3.L z a a l A O.3.+.                    ",
"                | =.B 1 X . . . . . . . $ p | o.                ",
"               .C $ . . . . . . . . . . . . X e  .!             ",
"            } 6 . . . . . . . . . . . . . . . . $ F /           ",
"          T - . . . . . . . . A [ [ 7 . . . . . . X c T         ",
"        R - . . . . . . . . . X.j.f.A 6 . . . . . . X n Y       ",
"      / 9 . . . . . . . . X w 2.8.5.:.&.o . . . . . . + W       ",
"    } Z . . . . . . . . $ { 4.-.-.-.*.@.X . . . . . . . 3  .    ",
"    =.; . . . . . . . * =.:.*.5.;.%.#._ X . . . . . . . . K     ",
"    L . . . . . . . o | ;.%.;.( y * X O . . . . . . . . . 4 2.  ",
"  <.7 . . . . . . . s ;.#.*.I # . . . . . . . . . . . . . X 2.  ",
"  t.@ . . . . . . O $.` #.^ @ . . . . . . . . . . . . . . . V   ",
"  } . . . . . . . 5 #.#.%.9 . . . . . . . . . . . . . . . . e  .",
"  m . . . . . . . d %.%.*.: $ $ $ O . . . . . . . . . . . . < } ",
"  x . . . . . . . m -.5.7.w.i.s.s.q . . . . . . . . . . . . - ( ",
"  h . . . . . . . S w.t.s.z.z.z.i.q . . . . . . . . . . . . - ~ ",
"  b . . . . . . . B z.z.i.i t t t = . . . . . . . . . . . . > U ",
"  N . . . . . . . r j.z.d.2 . . . . . . . . . . . . . . . . 9 U ",
"  ( O . . . . . . & f.g.z.{ X . . . . . . . . . . . . . . . j T ",
"  } 5 . . . . . . . L u.r.7.m X . . . . . . . . . . . . . X }   ",
"    S . . . . . . . * 1.4.3.-.K , . . . . . . . . . . . . 1 =.  ",
"    3.* . . . . . . . 6 5.-.-.1.-./ M M X . . . . . . . . L     ",
"      J . . . . . . . . 5 &.*.#.@.%.%._ X . . . . . . . 1 0.    ",
"      q.7 . . . . . . . . # c *.%.#.` ) X . . . . . . O >.      ",
"        =.; . . . . . . . . . / ;.%.E j X . . . . . . S o.      ",
"          ~ % . . . . . . . . D / / 9 . . . . . . . h (         ",
"          M T , . . . . . . . . . . . . . . . . O n R           ",
"              } g @ . . . . . . . . . . . . . 5 ! Q             ",
"                ' X.a = . . . . . . . . O 6 P O.                ",
"                    { | Q x u 0 6 e d G  .|                     ",
"                            ! E Y ! E                           "
};
